{"title":"The.Blacklist.2014.S02.2160p.WEB-DL.DTS-HD.MA.5.1.x264.TrollUHD","uid":15639066,"size":388072431377,"categoryP":"video","categoryS":"hd___tv_shows","magnet":"?xt=urn:btih:b76bfc940628319db0f826b62a1033fa84088ad0&amp;dn=The.Blacklist.2014.S02.2160p.WEB-DL.DTS-HD.MA.5.1.x264.TrollUHD&amp;tr=udp%3A%2F%2Ftracker.leechers-paradise.org%3A6969&amp;tr=udp%3A%2F%2Fzer0day.ch%3A1337&amp;tr=udp%3A%2F%2Fopen.demonii.com%3A1337&amp;tr=udp%3A%2F%2Ftracker.coppersurfer.tk%3A6969&amp;tr=udp%3A%2F%2Fexodus.desync.com%3A6969","seeders":1,"leechers":6,"uploader":"BreexeOX","files":22,"time":1472003239,"description":"For the sake of sharing PLEASE stay and seed, atleast for a while! Others also want this. My bandwidth cant stand with good speed to everyone alone.\r\n\r\nGeneral\r\nFormat                      : Matroska\r\nFormat version              : Version 4 / Version 2\r\nFile size                   : 14.8 GiB\r\nDuration                    : 42 min\r\nOverall bit rate            : 49.3 Mb/s\r\nMovie name                  : The Blacklist Season 2, Episodes 1:  Lord Baltimore (No. 104) (2014) \r\nEncoded date                : UTC 2016-03-19 20:47:30\r\nWriting application         : mkvmerge v8.5.1 ('Where you lead I will follow') 64bit\r\nWriting library             : libebml v1.3.3 + libmatroska v1.4.4\r\n\r\nVideo\r\nID                          : 1\r\nFormat                      : AVC\r\nFormat/Info                 : Advanced Video Codec\r\nFormat profile              :   \r\nFormat settings, CABAC      : Yes\r\nFormat settings, ReFrames   : 5 frames\r\nCodec ID                    : V_MPEG4/ISO/AVC\r\nDuration                    : 42 min\r\nBit rate                    : 46.5 Mb/s\r\nWidth                       : 3 840 pixels\r\nHeight                      : 2 160 pixels\r\nDisplay aspect ratio        : 16:9\r\nFrame rate mode             : Constant\r\nFrame rate                  : 23.976 (24000/1001) FPS\r\nColor space                 : YUV\r\nChroma subsampling          : 4:2:0\r\nBit depth                   : 8 bits\r\nScan type                   : Progressive\r\nBits/(Pixel*Frame)          : 0.234\r\nStream size                 : 13.9 GiB (94%)\r\nTitle                       : The Blacklist Season 2, Episodes 1:  Lord Baltimore (No. 104) (2014) \r\nWriting library             : x264 core 148 r2638 7599210\r\nLanguage                    : English\r\nDefault                     : Yes\r\nForced                      : No\r\n\r\nAudio #1\r\nID                          : 2\r\nFormat                      : DTS\r\nFormat/Info                 : Digital Theater Systems\r\nFormat profile              : MA / Core\r\nMode                        : 16\r\nFormat settings, Endianness : Big\r\nCodec ID                    : A_DTS\r\nDuration                    : 42 min\r\nBit rate mode               : Variable / Constant\r\nBit rate                    : 2 285 kb/s / 1 509 kb/s\r\nChannel(s)                  : 6 channels\r\nChannel positions           : Front: L C R, Side: L R, LFE\r\nSampling rate               : 48.0 kHz\r\nFrame rate                  : 93.750 FPS (512 spf)\r\nBit depth                   : 16 bits\r\nCompression mode            : Lossless / Lossy\r\nStream size                 : 701 MiB (5%)\r\nTitle                       : DTS-HD 5.1 - Blu-ray\r\nLanguage                    : English\r\nDefault                     : Yes\r\nForced                      : No\r\n\r\nAudio #2\r\nID                          : 3\r\nFormat                      : AC-3\r\nFormat/Info                 : Audio Coding 3\r\nMode extension              : CM (complete main)\r\nFormat settings, Endianness : Big\r\nCodec ID                    : A_AC3\r\nDuration                    : 42 min\r\nBit rate mode               : Constant\r\nBit rate                    : 384 kb/s\r\nChannel(s)                  : 6 channels\r\nChannel positions           : Front: L C R, Side: L R, LFE\r\nSampling rate               : 48.0 kHz\r\nFrame rate                  : 31.250 FPS (1536 spf)\r\nCompression mode            : Lossy\r\nStream size                 : 118 MiB (1%)\r\nTitle                       : AC3 5.1 @ 384 kbps - MVO, LostFilm\r\nLanguage                    : Russian\r\nDefault                     : No\r\nForced                      : No\r\n\r\nAudio #3\r\nID                          : 4\r\nFormat                      : AC-3\r\nFormat/Info                 : Audio Coding 3\r\nMode extension              : CM (complete main)\r\nFormat settings, Endianness : Big\r\nCodec ID                    : A_AC3\r\nDuration                    : 42 min\r\nBit rate mode               : Constant\r\nBit rate                    : 192 kb/s\r\nChannel(s)                  : 2 channels\r\nChannel positions           : Front: L R\r\nSampling rate               : 48.0 kHz\r\nFrame rate                  : 31.250 FPS (1536 spf)\r\nCompression mode            : Lossy\r\nStream size                 : 58.9 MiB (0%)\r\nTitle                       : AC3 2.0 @ 192 kbps - MVO, SET\r\nLanguage                    : Russian\r\nDefault                     : No\r\nForced                      : No","torrent":{"xt":"urn:btih:b76bfc940628319db0f826b62a1033fa84088ad0","amp;dn":"The.Blacklist.2014.S02.2160p.WEB-DL.DTS-HD.MA.5.1.x264.TrollUHD","amp;tr":["udp%3A%2F%2Ftracker.leechers-paradise.org%3A6969","udp%3A%2F%2Fzer0day.ch%3A1337","udp%3A%2F%2Fopen.demonii.com%3A1337","udp%3A%2F%2Ftracker.coppersurfer.tk%3A6969","udp%3A%2F%2Fexodus.desync.com%3A6969"],"infoHash":"b76bfc940628319db0f826b62a1033fa84088ad0","infoHashBuffer":{"type":"Buffer","data":[183,107,252,148,6,40,49,157,176,248,38,182,42,16,51,250,132,8,138,208]},"announce":[],"urlList":[]}}